# xmcd
#
# Track frame offsets: 
#        150
#        42830
#        94887
#        128525
#
# Disc length: 2626 seconds
#
# Revision: 1
# Processed by: cddbd v1.5.2PL0 Copyright (c) Steve Scherf et al.
# Submitted via: ExactAudioCopy v0.90b4
#
DISCID=290a4004
DTITLE=Terry Riley - Shri Camel
DYEAR=1978
DGENRE=Progressive Music
TTITLE0=Anthem Of The Trinity 
TTITLE1=Celestial Valley 
TTITLE2=Across The Lake Of The Ancient Word 
TTITLE3=Desert Of Ice 
EXTD=
EXTT0=
EXTT1=
EXTT2=
EXTT3=
PLAYORDER=
